#Comment line ignore any data following # character 
#Hierarchical Translation and Rotation (.htr) file 
[Header]	
#Header keywords are followed by a single value 
FileType HTR		#Single word string
DataType HTRS		#Translation followed by rotation and scale data
FileVersion 1		#integer
NumSegments 64		#integer
NumFrames 3		#integer
DataFrameRate 30		#integer, data frame rate in this file
EulerRotationOrder ZYX
CalibrationUnits mm
RotationUnits Degrees
GlobalAxisofGravity Y
BoneLengthAxis Y
ScaleFactor 1.00
[SegmentNames&Hierarchy]
#CHILD	PARENT
Pinger_Root GLOBAL
Pelvis Pinger_Root
L_Hip Pelvis
R_Hip Pelvis
Rear_Leg01 Pelvis
Spine1 Pelvis
L_Leg01 L_Hip
L_Leg02 L_Leg01
L_Leg03 L_Leg02
L_Foot L_Leg03
L_Toe1_01 L_Foot
L_Toe2_01 L_Foot
L_Toe3_01 L_Foot
planeAlignerLeft L_Foot
L_Toe1_02 L_Toe1_01
L_Toe1_03 L_Toe1_02
L_Toe2_02 L_Toe2_01
L_Toe2_03 L_Toe2_02
L_Toe3_02 L_Toe3_01
L_Toe3_03 L_Toe3_02
planeLockWeightLeft planeAlignerLeft
R_Leg01 R_Hip
R_Leg02 R_Leg01
R_Leg03 R_Leg02
R_Foot R_Leg03
planeAlignerRight R_Foot
R_Toe1_01 R_Foot
R_Toe2_01 R_Foot
R_Toe3_01 R_Foot
planeLockWeightRight planeAlignerRight
R_Toe1_02 R_Toe1_01
R_Toe1_03 R_Toe1_02
R_Toe2_02 R_Toe2_01
R_Toe2_03 R_Toe2_02
R_Toe3_02 R_Toe3_01
R_Toe3_03 R_Toe3_02
Rear_Leg02 Rear_Leg01
Rear_Leg03 Rear_Leg02
Rear_Leg04 Rear_Leg03
Rear_Foot Rear_Leg04
planeAlignerCenter Rear_Foot
Rear_Toe1_01 Rear_Foot
Rear_Toe2_01 Rear_Foot
Rear_Toe3_01 Rear_Foot
planeLockWeightCenter planeAlignerCenter
Rear_Toe1_02 Rear_Toe1_01
Rear_Toe1_03 Rear_Toe1_02
Rear_Toe2_02 Rear_Toe2_01
Rear_Toe2_03 Rear_Toe2_02
Rear_Toe3_02 Rear_Toe3_01
Rear_Toe3_03 Rear_Toe3_02
Back_Bone Spine1
Head Spine1
Motor_Bone Back_Bone
Ping_Mechanism Back_Bone
BN_LookIK Head
bottomMouth Head
L_Mouth01 Head
L_mouthFront Head
mouthGun Head
R_Mouth01 Head
R_mouthFront Head
TopMouth Head
weapon_bone Head
[BasePosition]
#SegmentName Tx, Ty, Tz, Rx, Ry, Rz, BoneLength
Pinger_Root 0.000000 0.000000 0.000000 -90.000000 0.000000 0.000000 10.000000 
Pelvis 0.000000 0.000000 0.000000 0.000000 0.000000 0.000000 10.000000 
L_Hip 0.000000 0.000000 0.000000 0.000000 0.000000 0.000000 10.000000 
R_Hip 0.000000 0.000000 0.000000 0.000000 0.000000 0.000000 10.000000 
Rear_Leg01 0.000000 0.000000 0.000000 0.000000 0.000000 0.000000 10.000000 
Spine1 0.000000 0.000000 0.000000 0.000000 0.000000 0.000000 10.000000 
L_Leg01 0.000000 0.000000 0.000000 0.000000 0.000000 0.000000 10.000000 
L_Leg02 0.000000 0.000000 0.000000 0.000000 0.000000 0.000000 10.000000 
L_Leg03 0.000000 0.000000 0.000000 0.000000 0.000000 0.000000 10.000000 
L_Foot 0.000000 0.000000 0.000000 0.000000 0.000000 0.000000 10.000000 
L_Toe1_01 0.000000 0.000000 0.000000 0.000000 0.000000 0.000000 10.000000 
L_Toe2_01 0.000000 0.000000 0.000000 0.000000 0.000000 0.000000 10.000000 
L_Toe3_01 0.000000 0.000000 0.000000 0.000000 0.000000 0.000000 10.000000 
planeAlignerLeft 0.000000 0.000000 0.000000 0.000000 0.000000 0.000000 10.000000 
L_Toe1_02 0.000000 0.000000 0.000000 0.000000 0.000000 0.000000 10.000000 
L_Toe1_03 0.000000 0.000000 0.000000 0.000000 0.000000 0.000000 10.000000 
L_Toe2_02 0.000000 0.000000 0.000000 0.000000 0.000000 0.000000 10.000000 
L_Toe2_03 0.000000 0.000000 0.000000 0.000000 0.000000 0.000000 10.000000 
L_Toe3_02 0.000000 0.000000 0.000000 0.000000 0.000000 0.000000 10.000000 
L_Toe3_03 0.000000 0.000000 0.000000 0.000000 0.000000 0.000000 10.000000 
planeLockWeightLeft 0.000000 0.000000 0.000000 0.000000 0.000000 0.000000 10.000000 
R_Leg01 0.000000 0.000000 0.000000 0.000000 0.000000 0.000000 10.000000 
R_Leg02 0.000000 0.000000 0.000000 0.000000 0.000000 0.000000 10.000000 
R_Leg03 0.000000 0.000000 0.000000 0.000000 0.000000 0.000000 10.000000 
R_Foot 0.000000 0.000000 0.000000 0.000000 0.000000 0.000000 10.000000 
planeAlignerRight 0.000000 0.000000 0.000000 0.000000 0.000000 0.000000 10.000000 
R_Toe1_01 0.000000 0.000000 0.000000 0.000000 0.000000 0.000000 10.000000 
R_Toe2_01 0.000000 0.000000 0.000000 0.000000 0.000000 0.000000 10.000000 
R_Toe3_01 0.000000 0.000000 0.000000 0.000000 0.000000 0.000000 10.000000 
planeLockWeightRight 0.000000 0.000000 0.000000 0.000000 0.000000 0.000000 10.000000 
R_Toe1_02 0.000000 0.000000 0.000000 0.000000 0.000000 0.000000 10.000000 
R_Toe1_03 0.000000 0.000000 0.000000 0.000000 0.000000 0.000000 10.000000 
R_Toe2_02 0.000000 0.000000 0.000000 0.000000 0.000000 0.000000 10.000000 
R_Toe2_03 0.000000 0.000000 0.000000 0.000000 0.000000 0.000000 10.000000 
R_Toe3_02 0.000000 0.000000 0.000000 0.000000 0.000000 0.000000 10.000000 
R_Toe3_03 0.000000 0.000000 0.000000 0.000000 0.000000 0.000000 10.000000 
Rear_Leg02 0.000000 0.000000 0.000000 0.000000 0.000000 0.000000 10.000000 
Rear_Leg03 0.000000 0.000000 0.000000 0.000000 0.000000 0.000000 10.000000 
Rear_Leg04 0.000000 0.000000 0.000000 0.000000 0.000000 0.000000 10.000000 
Rear_Foot 0.000000 0.000000 0.000000 0.000000 0.000000 0.000000 10.000000 
planeAlignerCenter 0.000000 0.000000 0.000000 0.000000 0.000000 0.000000 10.000000 
Rear_Toe1_01 0.000000 0.000000 0.000000 0.000000 0.000000 0.000000 10.000000 
Rear_Toe2_01 0.000000 0.000000 0.000000 0.000000 0.000000 0.000000 10.000000 
Rear_Toe3_01 0.000000 0.000000 0.000000 0.000000 0.000000 0.000000 10.000000 
planeLockWeightCenter 0.000000 0.000000 0.000000 0.000000 0.000000 0.000000 10.000000 
Rear_Toe1_02 0.000000 0.000000 0.000000 0.000000 0.000000 0.000000 10.000000 
Rear_Toe1_03 0.000000 0.000000 0.000000 0.000000 0.000000 0.000000 10.000000 
Rear_Toe2_02 0.000000 0.000000 0.000000 0.000000 0.000000 0.000000 10.000000 
Rear_Toe2_03 0.000000 0.000000 0.000000 0.000000 0.000000 0.000000 10.000000 
Rear_Toe3_02 0.000000 0.000000 0.000000 0.000000 0.000000 0.000000 10.000000 
Rear_Toe3_03 0.000000 0.000000 0.000000 0.000000 0.000000 0.000000 10.000000 
Back_Bone 0.000000 0.000000 0.000000 0.000000 0.000000 0.000000 10.000000 
Head 0.000000 0.000000 0.000000 0.000000 0.000000 0.000000 10.000000 
Motor_Bone 0.000000 0.000000 0.000000 0.000000 0.000000 0.000000 10.000000 
Ping_Mechanism 0.000000 0.000000 0.000000 0.000000 0.000000 0.000000 10.000000 
BN_LookIK 0.000000 0.000000 0.000000 0.000000 0.000000 0.000000 10.000000 
bottomMouth 0.000000 0.000000 0.000000 0.000000 0.000000 0.000000 10.000000 
L_Mouth01 0.000000 0.000000 0.000000 0.000000 0.000000 0.000000 10.000000 
L_mouthFront 0.000000 0.000000 0.000000 0.000000 0.000000 0.000000 10.000000 
mouthGun 0.000000 0.000000 0.000000 0.000000 0.000000 0.000000 10.000000 
R_Mouth01 0.000000 0.000000 0.000000 0.000000 0.000000 0.000000 10.000000 
R_mouthFront 0.000000 0.000000 0.000000 0.000000 0.000000 0.000000 10.000000 
TopMouth 0.000000 0.000000 0.000000 0.000000 0.000000 0.000000 10.000000 
weapon_bone 0.000000 0.000000 0.000000 0.000000 0.000000 0.000000 10.000000 
#Beginning of Data. Separated by tabs
#Fr	Tx	Ty	Tz	Rx	Ry	Rz	SF
[Pinger_Root]
14 -1685.185547 0.000000 0.000000 -0.000075 -0.000000 -0.000020 1685.185547
15 -1814.815063 0.000000 0.000000 -0.000075 -0.000000 -0.000020 1814.815063
16 -1944.444824 0.000000 0.000000 -0.000075 -0.000000 -0.000020 1944.444824
[Pelvis]
14 -839.695496 -301.867889 5185.830078 61.510098 -79.749153 -17.380674 5262.038086
15 -809.347595 -311.325256 5126.838379 57.562355 -79.198555 -11.857271 5199.657227
16 -766.969666 -332.130310 5067.493164 54.099152 -78.584076 -6.817314 5135.955566
[L_Hip]
14 5.766392 125.831482 872.656799 -178.250168 -81.786369 87.376007 881.701050
15 5.766392 125.831482 872.656799 -178.250168 -81.786369 87.376007 881.701050
16 5.766392 125.831482 872.656799 -178.250168 -81.786369 87.376007 881.701050
[R_Hip]
14 5.765438 125.836372 -872.654907 -1.748770 81.786041 87.376961 881.699829
15 5.765438 125.836372 -872.654907 -1.748770 81.786041 87.376961 881.699829
16 5.765438 125.836372 -872.654907 -1.748770 81.786041 87.376961 881.699829
[Rear_Leg01]
14 -192.298416 -925.602966 -0.001907 168.565247 11.016438 155.613495 945.367432
15 -192.298416 -925.602966 -0.001907 169.585709 13.912472 158.239288 945.367432
16 -192.298416 -925.602966 -0.001907 171.448822 17.067900 162.830612 945.367432
[Spine1]
14 290.604584 5.007505 0.000477 -29.492197 12.338672 35.444607 290.647736
15 290.604584 5.007505 0.000477 -31.716845 11.928297 34.383465 290.647736
16 290.604584 5.007505 0.000477 -33.929012 11.478247 33.341431 290.647736
[L_Leg01]
14 761.932007 -0.002384 -0.069261 69.360794 9.688881 -97.179787 761.932068
15 761.932007 -0.002384 -0.069261 69.924896 11.024285 -99.190117 761.932068
16 761.932007 -0.002384 -0.069261 70.443199 12.377633 -101.195709 761.932068
[L_Leg02]
14 1441.140503 -0.000954 -0.000715 -1.184079 0.917596 -82.502426 1441.140503
15 1441.140503 -0.000954 -0.000715 -1.218265 0.889383 -82.614510 1441.140503
16 1441.140503 -0.000954 -0.000715 -1.252395 0.861103 -82.726570 1441.140503
[L_Leg03]
14 1686.963989 -0.000715 -0.000954 0.133851 -0.006208 74.255898 1686.963989
15 1686.963989 -0.000715 -0.000954 0.125513 -0.008595 76.466042 1686.963989
16 1686.963989 -0.000715 -0.000954 0.117087 -0.010660 78.676964 1686.963989
[L_Foot]
14 3041.570068 -30.715107 11.297464 -0.875037 15.128502 98.910042 3041.746094
15 3041.570068 -30.715107 11.297464 -0.333583 14.281354 98.573601 3041.746094
16 3041.570068 -30.715107 11.297464 0.211007 13.437321 98.230133 3041.746094
[L_Toe1_01]
14 -188.216690 -224.732346 -21.137953 89.232742 -1.821255 -159.567627 293.899567
15 -188.216690 -224.732346 -21.137953 89.182655 -1.800857 -158.270660 293.899567
16 -188.216690 -224.732346 -21.137953 89.133072 -1.779336 -156.973862 293.899567
[L_Toe2_01]
14 200.746536 -219.926590 148.838394 -77.058792 -13.048759 -47.483715 332.896027
15 200.746536 -219.926590 148.838394 -76.798744 -12.830651 -48.668118 332.896027
16 200.746536 -219.926590 148.838394 -76.543625 -12.607376 -49.850338 332.896027
[L_Toe3_01]
14 188.832520 -219.859131 -191.078659 -106.843567 16.195490 -49.420013 347.140900
15 188.832520 -219.859131 -191.078659 -107.162155 15.912487 -50.602097 347.140900
16 188.832520 -219.859131 -191.078659 -107.474113 15.623257 -51.780716 347.140900
[planeAlignerLeft]
14 -58.673790 -655.567139 0.007019 0.000000 -90.000000 -90.001900 658.187622
15 -61.608967 -669.167847 0.005798 0.000000 -90.000000 -90.001900 671.997925
16 -63.932552 -685.859009 0.002238 0.000000 -90.000000 -90.001900 688.832336
[L_Toe1_02]
14 413.761139 0.000477 0.000000 0.001395 -24.614794 0.001395 413.761139
15 413.761139 0.000477 0.000000 0.001393 -24.835148 0.001393 413.761139
16 413.761139 0.000477 0.000000 0.001391 -25.055490 0.001391 413.761139
[L_Toe1_03]
14 464.317322 0.000358 -0.000089 0.006744 69.955124 0.006744 464.317322
15 464.317322 0.000358 -0.000089 0.006153 68.004257 0.006153 464.317322
16 464.317322 0.000358 -0.000089 0.005657 66.053360 0.005657 464.317322
[L_Toe2_02]
14 342.235809 -0.000477 0.000238 0.001180 -78.272591 0.001180 342.235809
15 342.235809 -0.000477 0.000238 0.001180 -78.111877 0.001180 342.235809
16 342.235809 -0.000477 0.000238 0.001180 -77.951012 0.001180 342.235809
[L_Toe2_03]
14 420.210846 -0.000715 0.000000 -179.997620 74.060326 -179.994095 420.210846
15 420.210846 -0.000715 0.000000 -179.997360 74.995834 -179.993835 420.210846
16 420.210846 -0.000715 0.000000 -179.996902 76.416893 -179.993378 420.210846
[L_Toe3_02]
14 329.270111 0.000954 0.000000 0.001177 -81.784744 0.001177 329.270111
15 329.270111 0.000954 0.000000 0.001177 -81.579414 0.001177 329.270111
16 329.270111 0.000954 0.000000 0.001177 -81.374176 0.001177 329.270111
[L_Toe3_03]
14 439.137451 -0.001907 0.000954 -179.998047 72.265205 -179.994507 439.137451
15 439.137451 -0.001907 0.000954 -179.997787 73.448341 -179.994247 439.137451
16 439.137451 -0.001907 0.000954 -179.997467 74.631592 -179.993942 439.137451
[planeLockWeightLeft]
14 999.998840 0.098000 0.076284 -0.011826 -0.004376 0.005620 999.998901
15 999.998840 0.097997 0.076276 -0.011826 -0.004376 0.005620 999.998901
16 999.998840 0.097994 0.076267 -0.011826 -0.004376 0.005620 999.998901
[R_Leg01]
14 761.455627 -0.001907 -0.000358 62.530384 -24.611603 70.448311 761.455688
15 761.455627 -0.001907 -0.000358 61.929382 -34.762005 74.611290 761.455688
16 761.455627 -0.001907 -0.000358 63.686344 -43.641197 75.877785 761.455688
[R_Leg02]
14 1441.140625 0.000000 -0.000238 0.147388 -0.093913 -116.079147 1441.140625
15 1441.140625 0.000000 -0.000238 0.026227 -0.063694 -128.941269 1441.140625
16 1441.140625 0.000000 -0.000238 -0.205170 0.010483 -139.599396 1441.140625
[R_Leg03]
14 1686.963989 0.000954 0.001431 -0.081744 0.013009 88.628029 1686.963989
15 1686.963989 0.000954 0.001431 -0.067385 0.014970 91.668793 1686.963989
16 1686.963989 0.000954 0.001431 -0.049479 0.013160 96.142471 1686.963989
[R_Foot]
14 3041.560059 -30.531288 -11.204481 57.416779 -25.871376 38.450432 3041.734131
15 3041.560059 -30.531288 -11.204481 56.033249 -26.743626 37.304138 3041.734131
16 3041.560059 -30.531288 -11.204481 51.926163 -28.173702 36.955395 3041.734131
[planeAlignerRight]
14 -157.131393 -836.373718 14.959257 0.000000 -89.960434 -90.005180 851.137512
15 -173.427765 -830.435913 14.418943 0.000000 -89.960434 -90.005180 848.474426
16 -189.724136 -824.498108 13.878632 0.000000 -89.960434 -90.005180 846.158997
[R_Toe1_01]
14 -188.383347 -224.864899 21.052242 91.199631 0.700867 -143.387543 294.101532
15 -188.383347 -224.864899 21.052242 91.255394 0.692518 -145.319473 294.101532
16 -188.383347 -224.864899 21.052242 91.363403 0.664194 -145.128250 294.101532
[R_Toe2_01]
14 200.637817 -220.002121 -148.787384 -105.702530 9.311575 -63.178970 332.857574
15 200.637817 -220.002121 -148.787384 -106.445694 8.257320 -68.978363 332.857574
16 200.637817 -220.002121 -148.787384 -107.188217 6.429753 -77.168877 332.857574
[R_Toe3_01]
14 188.606735 -220.092957 191.126343 -69.011971 -13.368218 -65.604599 347.192566
15 188.606735 -220.092957 191.126343 -68.287392 -12.144496 -71.120621 347.192566
16 188.606735 -220.092957 191.126343 -67.549919 -9.879533 -78.876022 347.192566
[planeLockWeightRight]
14 -0.000000 -0.000458 0.076599 -0.011823 -0.004379 -0.000027 0.076600
15 -0.000022 -0.000436 0.076577 -0.011823 -0.004379 -0.000027 0.076579
16 -0.000044 -0.000414 0.076556 -0.011823 -0.004379 -0.000027 0.076557
[R_Toe1_02]
14 413.762085 0.000477 -0.000119 0.001387 -25.581667 0.001387 413.762085
15 413.762085 0.000477 -0.000119 0.001390 -25.221716 0.001390 413.762085
16 413.762085 0.000477 -0.000119 0.001407 -23.067171 0.001407 413.762085
[R_Toe1_03]
14 464.317810 0.000000 0.001088 0.003080 45.195831 0.003080 464.317810
15 464.317810 0.000000 0.001088 0.005509 65.399803 0.005509 464.317810
16 464.317810 0.000000 0.001088 0.011458 78.241882 0.011458 464.317810
[R_Toe2_02]
14 342.234741 -0.000954 0.000238 -0.002339 -76.963982 -0.002339 342.234741
15 342.234741 -0.000954 0.000238 -0.002333 -79.222725 -0.002333 342.234741
16 342.234741 -0.000954 0.000238 -0.002332 -80.040443 -0.002332 342.234741
[R_Toe2_03]
14 420.210846 0.000715 -0.000268 -179.991913 79.567719 -179.995438 420.210846
15 420.210846 0.000715 -0.000268 -179.995148 68.512802 -179.998703 420.210846
16 420.210846 0.000715 -0.000268 -179.995789 62.397945 -179.999390 420.210846
[R_Toe3_02]
14 329.270355 -0.000477 -0.000954 0.001178 -80.357452 0.001178 329.270355
15 329.270355 -0.000477 -0.000954 0.001176 -82.662041 0.001176 329.270355
16 329.270355 -0.000477 -0.000954 0.001175 -83.607292 0.001175 329.270355
[R_Toe3_03]
14 439.137939 0.000238 0.001431 -179.995712 79.079437 -179.992203 439.137939
15 439.137939 0.000238 0.001431 -179.998749 68.172104 -179.995178 439.137939
16 439.137939 0.000238 0.001431 -179.999451 61.849445 -179.995834 439.137939
[Rear_Leg02]
14 1162.777710 -0.029802 0.005960 4.668914 -8.285163 -150.562134 1162.777710
15 1162.777710 -0.029802 0.005960 4.588017 -6.884964 -153.440277 1162.777710
16 1162.777710 -0.029802 0.005960 5.108323 -6.358061 -154.666824 1162.777710
[Rear_Leg03]
14 607.192505 -0.013351 -0.073195 0.010380 -0.005331 70.723511 607.192505
15 607.192505 -0.013351 -0.073195 0.010316 -0.005456 72.099785 607.192505
16 607.192505 -0.013351 -0.073195 0.010250 -0.005579 73.476257 607.192505
[Rear_Leg04]
14 995.874512 -0.020504 -0.011921 -0.040959 -0.017070 72.112221 995.874573
15 995.874512 -0.020504 -0.011921 -0.041414 -0.015935 75.270401 995.874573
16 995.874512 -0.020504 -0.011921 -0.043521 -0.016459 79.097000 995.874573
[Rear_Foot]
14 3096.176270 -0.067472 -0.041425 -42.054527 75.630287 114.127487 3096.176270
15 3096.176270 -0.067472 -0.041425 -36.371048 75.856972 120.828110 3096.176270
16 3096.176270 -0.067472 -0.041425 -34.042015 75.221596 123.496872 3096.176270
[planeAlignerCenter]
14 1.152496 76.354378 -655.811890 0.000009 0.000003 -179.999985 660.242859
15 1.151123 27.343351 -663.691406 0.000009 0.000003 -179.999985 664.255432
16 1.149750 -21.667706 -671.570923 0.000009 0.000003 -179.999985 671.921326
[Rear_Toe1_01]
14 0.653352 83.966492 -371.173737 0.058584 18.495501 90.029648 380.553192
15 0.653352 83.966492 -371.173737 0.063906 17.193356 90.032700 380.553192
16 0.653352 83.966492 -371.173737 0.067302 16.320248 90.033997 380.553192
[Rear_Toe2_01]
14 178.200760 -294.826019 -362.060547 0.830582 43.183350 -69.998062 499.765686
15 178.200760 -294.826019 -362.060547 0.302629 43.865963 -71.189926 499.765686
16 178.200760 -294.826019 -362.060547 -0.251199 44.540310 -72.404259 499.765686
[Rear_Toe3_01]
14 -153.359680 -308.780914 -362.060852 -1.043683 43.203125 -112.452232 499.952881
15 -153.359680 -308.780914 -362.060852 -0.447271 43.876480 -111.123146 499.952881
16 -153.359680 -308.780914 -362.060852 0.177617 44.539463 -109.769325 499.952881
[planeLockWeightCenter]
14 999.999817 0.000384 0.076311 -0.011814 -0.004373 -0.000015 999.999817
15 999.999817 0.000371 0.076302 -0.011814 -0.004373 -0.000015 999.999817
16 999.999817 0.000359 0.076292 -0.011814 -0.004373 -0.000015 999.999817
[Rear_Toe1_02]
14 379.707825 0.194073 0.000477 -0.000767 -33.624729 0.000838 379.707855
15 379.707825 0.194073 0.000477 -0.000767 -33.624729 0.000838 379.707855
16 379.707825 0.194073 0.000477 -0.000767 -33.624729 0.000838 379.707855
[Rear_Toe1_03]
14 500.129700 0.165701 0.000119 0.009585 75.933861 0.009585 500.129761
15 500.129700 0.165701 0.000119 -0.009603 84.196945 -0.013105 500.129761
16 500.129700 0.165701 0.000119 -179.952774 88.551521 -179.956268 500.129761
[Rear_Toe2_02]
14 340.494507 0.000238 -0.000954 0.001174 -86.710320 0.001174 340.494507
15 340.494507 0.000238 -0.000954 0.001175 -83.647049 0.001175 340.494507
16 340.494507 0.000238 -0.000954 0.001179 -79.838577 0.001179 340.494507
[Rear_Toe2_03]
14 433.103577 0.000000 0.000238 -179.993301 76.644463 -179.996826 433.103546
15 433.103577 0.000000 0.000238 179.975586 84.490562 179.975586 433.103546
16 433.103577 0.000000 0.000238 0.046543 87.110115 0.046543 433.103546
[Rear_Toe3_02]
14 340.494141 -0.000358 -0.000477 0.001174 -86.621941 0.001174 340.494171
15 340.494141 -0.000358 -0.000477 0.001175 -83.587364 0.001175 340.494171
16 340.494141 -0.000358 -0.000477 0.001179 -79.814972 0.001179 340.494171
[Rear_Toe3_03]
14 433.103577 0.001431 -0.000238 -179.996735 76.896896 -179.993210 433.103546
15 433.103577 0.001431 -0.000238 -179.989441 84.644341 -179.985947 433.103546
16 433.103577 0.001431 -0.000238 -0.024119 87.055496 -0.020621 433.103546
[Back_Bone]
14 1312.175781 -701.934692 0.000954 -2.028958 -3.649432 -80.802025 1488.125488
15 1312.175781 -701.934692 0.000954 -1.695368 -3.648055 -80.517944 1488.125488
16 1312.175781 -701.934692 0.000954 -1.361781 -3.648327 -80.233856 1488.125488
[Head]
14 1406.159424 809.709290 0.001431 -11.687198 5.027520 1.799586 1622.625488
15 1406.159424 809.709290 0.001431 -11.441973 4.715482 3.116273 1622.625488
16 1406.159424 809.709290 0.001431 -11.095363 4.446610 3.804855 1622.625488
[Motor_Bone]
14 1158.364380 -417.834747 0.000477 -1.029631 1.419345 -104.575356 1231.419434
15 1158.364380 -417.834747 0.000477 -0.583225 2.827931 -103.156052 1231.419434
16 1158.364380 -417.834747 0.000477 0.001255 -0.033980 -106.020981 1231.419434
[Ping_Mechanism]
14 1200.640015 -415.475555 46.359211 0.000103 -0.000053 82.120995 1271.340088
15 1203.869751 -417.091248 50.692959 0.000103 -0.000053 82.120995 1275.083130
16 1207.099487 -418.706940 55.026711 0.000103 -0.000053 82.120995 1278.840332
[BN_LookIK]
14 193.241119 1380.371704 -0.002861 0.000000 89.965736 -31.038179 1393.832153
15 193.241119 1380.371704 -0.002861 0.000000 89.965736 -31.038179 1393.832153
16 193.241119 1380.371704 -0.002861 0.000000 89.965736 -31.038179 1393.832153
[bottomMouth]
14 -435.092926 615.759399 -0.000954 -0.000022 0.000016 73.527184 753.966492
15 -435.092926 615.759399 -0.000954 -0.000022 0.000016 73.527184 753.966492
16 -435.092926 615.759399 -0.000954 -0.000022 0.000016 73.527184 753.966492
[L_Mouth01]
14 554.440979 7.658243 838.222046 150.204178 23.759130 109.605339 1005.027161
15 554.440979 7.658243 838.222046 150.204178 23.759130 109.605339 1005.027161
16 554.440979 7.658243 838.222046 150.204178 23.759130 109.605339 1005.027161
[L_mouthFront]
14 551.629089 934.514771 339.150421 0.000081 2.804060 79.119301 1136.941284
15 551.629089 934.514771 339.150421 0.000081 2.804060 79.119301 1136.941284
16 551.629089 934.514771 339.150421 0.000081 2.804060 79.119301 1136.941284
[mouthGun]
14 55.332661 1627.420898 0.000000 0.000023 0.000009 -11.038128 1628.361328
15 55.332661 1627.420898 0.000000 0.000023 0.000009 -11.038128 1628.361328
16 55.332661 1627.420898 0.000000 0.000023 0.000009 -11.038128 1628.361328
[R_Mouth01]
14 554.442383 7.659197 -838.223938 29.795891 -23.759109 109.605331 1005.029541
15 554.442383 7.659197 -838.223938 29.795891 -23.759109 109.605331 1005.029541
16 554.442383 7.659197 -838.223938 29.795891 -23.759109 109.605331 1005.029541
[R_mouthFront]
14 551.629089 934.514282 -339.151367 0.000029 -2.803930 79.119133 1136.941162
15 551.629089 934.514282 -339.151367 0.000029 -2.803930 79.119133 1136.941162
16 551.629089 934.514282 -339.151367 0.000029 -2.803930 79.119133 1136.941162
[TopMouth]
14 461.269867 -56.106091 -0.008583 -0.000059 -0.000268 92.025169 464.669525
15 461.269867 -56.106091 -0.008583 -0.000059 -0.000268 92.025169 464.669525
16 461.269867 -56.106091 -0.008583 -0.000059 -0.000268 92.025169 464.669525
[weapon_bone]
14 -987.239868 1448.372803 0.001431 0.000000 89.965736 -31.038221 1752.833740
15 -987.239868 1448.372803 0.001431 0.000000 89.965736 -31.038221 1752.833740
16 -987.239868 1448.372803 0.001431 0.000000 89.965736 -31.038221 1752.833740
